<svg width="33" height="25" viewBox="0 0 33 25" fill="none" xmlns="http://www.w3.org/2000/svg">
<g clip-path="url(#clip0_301_358)">
<path d="M15.7613 0.583252H1.65691C0.791391 0.583252 0.0897522 1.35676 0.0897522 2.31093C0.0897522 3.2651 0.791391 4.03861 1.65691 4.03861H15.7613C16.6268 4.03861 17.3285 3.2651 17.3285 2.31093C17.3285 1.35676 16.6268 0.583252 15.7613 0.583252Z" fill="white"/>
<path d="M31.4329 10.9492H1.65691C0.791391 10.9492 0.0897522 11.7227 0.0897522 12.6769C0.0897522 13.6311 0.791391 14.4046 1.65691 14.4046H31.4329C32.2984 14.4046 33 13.6311 33 12.6769C33 11.7227 32.2984 10.9492 31.4329 10.9492Z" fill="white"/>
<path d="M31.4328 21.3154H17.3285C16.4629 21.3154 15.7613 22.0889 15.7613 23.0431C15.7613 23.9973 16.4629 24.7708 17.3285 24.7708H31.4328C32.2984 24.7708 33 23.9973 33 23.0431C33 22.0889 32.2984 21.3154 31.4328 21.3154Z" fill="white"/>
</g>
<defs>
<clipPath id="clip0_301_358">
<rect width="32.9103" height="24.1875" fill="white" transform="translate(0.0897522 0.583252)"/>
</clipPath>
</defs>
</svg>
